<svg width="20" height="20" viewBox="0 0 20 20" fill="none" xmlns="http://www.w3.org/2000/svg">
<path d="M10.0003 10C11.154 10 12.2819 9.70676 13.2412 9.15735C14.2004 8.60794 14.9481 7.82705 15.3896 6.91342C15.8311 5.99979 15.9467 4.99445 15.7216 4.02455C15.4965 3.05465 14.9409 2.16373 14.1251 1.46447C13.3093 0.765206 12.2699 0.289002 11.1384 0.0960758C10.0068 -0.0968502 8.83391 0.00216642 7.76801 0.380605C6.7021 0.759043 5.79106 1.3999 5.15009 2.22215C4.50911 3.0444 4.16699 4.0111 4.16699 5C4.16699 6.32608 4.78157 7.59785 5.87554 8.53553C6.9695 9.47322 8.45323 10 10.0003 10ZM10.0003 1.42857C10.8244 1.42857 11.63 1.63803 12.3152 2.03047C13.0004 2.4229 13.5345 2.98068 13.8498 3.63327C14.1652 4.28587 14.2477 5.00396 14.0869 5.69675C13.9262 6.38954 13.5293 7.02591 12.9466 7.52538C12.3639 8.02486 11.6215 8.365 10.8132 8.50281C10.0049 8.64061 9.16717 8.56988 8.40581 8.29957C7.64445 8.02926 6.99371 7.5715 6.53587 6.98418C6.07803 6.39686 5.83366 5.70636 5.83366 5C5.83366 4.0528 6.27265 3.14439 7.05405 2.47462C7.83545 1.80485 8.89526 1.42857 10.0003 1.42857Z" fill="#C18F2C"/>
<path d="M10.8333 11.4286H9.16667C6.73552 11.4286 4.40394 12.2564 2.68485 13.7299C0.965771 15.2034 0 17.2019 0 19.2858C0 19.4752 0.0877975 19.6569 0.244078 19.7908C0.400358 19.9248 0.61232 20 0.833333 20H19.1667C19.3877 20 19.5996 19.9248 19.7559 19.7908C19.9122 19.6569 20 19.4752 20 19.2858C20 17.2019 19.0342 15.2034 17.3151 13.7299C15.5961 12.2564 13.2645 11.4286 10.8333 11.4286ZM1.71667 18.5715C1.92158 17.0005 2.79459 15.5493 4.1689 14.4952C5.54321 13.4411 7.32245 12.8579 9.16667 12.8572H10.8333C12.6776 12.8579 14.4568 13.4411 15.8311 14.4952C17.2054 15.5493 18.0784 17.0005 18.2833 18.5715H1.71667Z" fill="#C18F2C"/>
</svg>
