<svg width="50" height="50" viewBox="0 0 50 50" fill="none" xmlns="http://www.w3.org/2000/svg">
<path d="M15.9811 19.5006H15.0889V14.2995L15.0417 14.2434C15.0363 14.2599 15.0247 14.271 15.0177 14.2867C14.8739 13.9688 14.5098 13.7164 14.0142 13.5267V9.69639L13.9461 9.61533C13.5897 9.03406 11.8423 8.9834 11.264 8.9834C10.6857 8.9834 8.93828 9.03498 8.58185 9.61533L8.51381 9.69732V10.168H6.66437L6.44557 10.4297V12.2444L6.66437 12.506H8.51381V13.5258C8.15351 13.663 7.86434 13.8344 7.67646 14.0398H7.6579L7.4391 14.3014V19.5024H6.74633C5.44431 19.5024 4.38506 20.7644 4.38506 22.3157V25.6531C2.83021 26.426 1.36736 28.2822 0.572537 30.7574C-0.165844 33.0585 -0.191359 35.5006 0.503725 37.2914C0.943661 38.4263 1.63874 39.2212 2.51088 39.5879C2.86191 39.7362 3.22684 39.8062 3.59642 39.8062C3.85698 39.8062 4.12063 39.7703 4.38506 39.7021V44.2868C4.38506 47.1121 6.54221 49.4105 9.1942 49.4105H13.5333C16.1852 49.4105 18.3424 47.1112 18.3424 44.2868V25.9921V25.491V22.3129C18.3424 20.7626 17.2831 19.5006 15.9811 19.5006ZM8.51303 11.9828H6.88318V10.6904H8.51303V11.9828ZM11.264 9.50571C12.464 9.50571 13.2286 9.69639 13.4969 9.83641C13.2286 9.97736 12.464 10.1671 11.264 10.1671C10.064 10.1671 9.29935 9.97643 9.03106 9.83641C9.29935 9.69547 10.064 9.50571 11.264 9.50571ZM8.95065 12.2444V10.4297V10.3523C9.60244 10.6581 10.8032 10.6904 11.2632 10.6904C11.7233 10.6904 12.924 10.6572 13.5758 10.3523V13.7275C13.3856 13.8482 12.5977 14.0389 11.2632 14.0389C9.92872 14.0389 9.14162 13.8482 8.95065 13.7275V12.2444ZM8.60504 14.0416C8.96843 14.4865 10.3741 14.5612 11.264 14.5612C12.1547 14.5612 13.565 14.4856 13.9253 14.0389C14.3922 14.2305 14.6513 14.4442 14.6513 14.5952C14.6513 14.9324 13.4552 15.5874 11.264 15.5874C9.07281 15.5874 7.87671 14.9324 7.87671 14.5952C7.87671 14.4451 8.1365 14.2323 8.60504 14.0416ZM7.87671 15.3359C8.55169 15.8453 9.91171 16.1106 11.264 16.1106C12.6163 16.1106 13.9763 15.8462 14.6513 15.3359V18.8115C14.3551 18.9865 13.2998 19.1929 11.7356 19.2251C11.7348 19.2177 11.7395 19.2104 11.7379 19.203C11.8771 19.0105 12.0024 18.6291 12.1052 18.3196C12.14 18.2146 12.1709 18.1197 12.1964 18.0506C12.3689 17.5928 12.3642 17.1543 12.1848 16.8466C12.0743 16.6569 11.9073 16.5574 11.7503 16.597C11.6599 16.62 11.5934 16.6873 11.5516 16.7342C11.3684 16.9397 11.3026 17.4251 11.2872 17.8977C11.1148 17.3579 10.93 16.9129 10.6284 16.9608C10.3246 17.018 10.1993 17.2068 10.1475 17.3542C10.0238 17.7107 10.2071 18.1363 10.2596 18.2229C10.4467 18.5305 10.9478 18.969 11.3034 19.2316C9.31327 19.2288 8.04062 18.9432 7.92774 18.7783C7.92774 18.7268 7.90687 18.6853 7.87671 18.654V15.3359ZM11.6405 19.5816C11.6459 19.5789 11.6467 19.5724 11.6513 19.5687C12.406 19.5558 13.9508 19.4877 14.6505 19.1652V22.9955C14.6296 23.2102 13.5557 23.7758 11.2632 23.7758C10.8859 23.7758 10.5534 23.7564 10.2411 23.7297C10.0068 22.1029 9.54522 20.5811 11.6405 19.5816ZM11.4836 18.9672L11.5485 18.9414C11.5369 18.9607 11.5269 18.9773 11.5153 18.9902C11.5044 18.9828 11.4944 18.9755 11.4836 18.9672ZM11.748 16.9811C11.7751 16.9498 11.7967 16.9323 11.8122 16.9286C11.8145 16.9277 11.8176 16.9277 11.8207 16.9277C11.8531 16.9277 11.9088 16.9673 11.9513 17.0401C12.123 17.3348 11.9985 17.7485 11.9366 17.9115C11.9096 17.9843 11.8763 18.0847 11.8392 18.1962C11.7751 18.3914 11.6869 18.6604 11.6011 18.841C11.5338 18.2026 11.5632 17.1875 11.748 16.9811ZM11.2586 18.794C10.9516 18.5453 10.6161 18.2275 10.4916 18.0239C10.4568 17.9668 10.3455 17.6757 10.4119 17.485C10.4251 17.4482 10.4638 17.3358 10.6748 17.2962C10.6764 17.2962 10.6779 17.2962 10.6802 17.2962C10.7668 17.2962 10.9238 17.6775 11.1472 18.4292C11.1867 18.5637 11.2238 18.6881 11.2586 18.794ZM7.87671 19.0962C8.48829 19.4738 10.1638 19.5531 10.9795 19.5678C10.2952 19.9814 9.74857 20.5479 9.64264 21.576C9.56996 22.2853 9.76016 22.9651 9.87614 23.6486C9.87846 23.6634 9.88078 23.6781 9.8831 23.6938C8.54164 23.5307 7.89295 23.1604 7.87671 22.9946V19.0962ZM6.74633 20.2836H7.4391V22.9946C7.4391 23.7371 8.73957 24.0844 9.96196 24.2216C10.0748 25.0986 10.0547 25.9405 9.45321 26.6692C9.25219 26.9133 9.0156 27.0819 8.76354 27.198C8.32902 26.3717 7.74373 25.771 7.02931 25.4707C6.39531 25.2045 5.71801 25.1962 5.04303 25.3943V22.3138H5.04226C5.04226 21.1946 5.80692 20.2836 6.74633 20.2836ZM2.65779 39.0941C1.8993 38.7745 1.29159 38.0753 0.901909 37.0703C0.255536 35.4048 0.284917 33.1138 0.982319 30.9416C1.9743 27.8511 4.04486 25.772 5.92909 25.772C6.25459 25.772 6.57469 25.8337 6.88164 25.9636C7.46461 26.2086 7.95558 26.683 8.32979 27.3435C8.03599 27.4015 7.73135 27.3914 7.43368 27.3297C7.43136 27.2348 7.41435 27.1408 7.37801 27.0515C7.23575 26.7024 6.87468 26.5467 6.56618 26.707C6.41541 26.7862 6.30098 26.9299 6.24532 27.1104C6.19197 27.2855 6.19892 27.4752 6.26774 27.6447C6.37211 27.9008 6.59556 28.0519 6.82674 28.0519C6.91102 28.0519 6.99761 28.0316 7.0788 27.9893C7.2056 27.9229 7.29606 27.8059 7.35869 27.6668C7.73909 27.7525 8.11872 27.7461 8.47824 27.6558C8.53082 27.7673 8.59112 27.8686 8.63752 27.9893C9.28389 29.6548 9.25373 31.9457 8.55711 34.117C7.39425 37.74 4.74613 39.9739 2.65779 39.0941ZM6.9288 27.5323C6.99916 27.56 7.07029 27.5756 7.14142 27.5978C7.10276 27.6604 7.0556 27.7157 6.9922 27.7488C6.79195 27.8529 6.55768 27.7553 6.46644 27.5296C6.42314 27.4255 6.41851 27.3085 6.45175 27.1998C6.48654 27.0865 6.55922 26.9962 6.6551 26.9456C6.70922 26.917 6.76566 26.9041 6.82133 26.9041C6.97055 26.9041 7.11436 27.0008 7.18086 27.1648C7.19477 27.198 7.19787 27.2339 7.20405 27.2698C7.13756 27.2495 7.07029 27.2311 7.00457 27.2053C6.82983 27.1362 6.75484 27.4642 6.9288 27.5323ZM6.44557 38.5055V47.5128C5.59121 46.7169 5.04226 45.5719 5.04226 44.285V39.4525C5.59044 39.1991 6.12857 38.8187 6.6319 38.3148C6.5685 38.3765 6.51206 38.4484 6.44557 38.5055ZM15.9463 47.803C15.2644 48.3161 14.4348 48.6256 13.5333 48.6256H9.1942C8.33907 48.6256 7.54425 48.3529 6.88318 47.8877V38.0587C6.8252 38.1343 6.75484 38.1895 6.69066 38.2549C7.6293 37.2932 8.44345 35.9326 8.96689 34.3021C9.57151 32.4183 9.68981 30.4442 9.33414 28.8063H15.9463V47.803ZM17.6852 44.285C17.6852 45.5221 17.1811 46.6331 16.3839 47.4244V28.7575C16.8919 28.6525 17.3435 28.3568 17.6852 27.9303V44.285ZM17.6852 25.5334V25.9921C17.6852 27.1114 16.9205 28.0224 15.9811 28.0224H9.11843C9.08982 27.9386 9.0674 27.8502 9.03647 27.7691C8.99859 27.6714 8.94833 27.5904 8.90658 27.4983C9.33414 27.2864 9.71223 26.9281 9.9867 26.3892C10.3424 25.6891 10.371 24.9678 10.3045 24.2566C10.6532 24.2852 10.9849 24.2981 11.264 24.2981C12.5869 24.2981 15.0889 24.0263 15.0889 22.9955V20.2845H15.9811C16.9205 20.2845 17.6852 21.1946 17.6852 22.3148V25.5334Z" fill="#C18F2C"/>
<path d="M21.8874 30.1374C21.8889 30.1743 22.0552 33.556 25.4571 34.3169C24.8533 34.7277 24.4474 35.2408 24.2556 35.8534C23.9386 36.8685 24.326 37.7575 24.3422 37.7952C24.3793 37.8791 24.452 37.9316 24.5309 37.9334C24.5572 37.9343 24.5819 37.9343 24.6082 37.9343C25.403 37.9343 25.9968 37.6451 26.3734 37.0721C26.719 36.547 26.8125 35.8847 26.8156 35.3274C27.5679 36.3628 28.6759 36.6309 29.5704 36.6309C30.3722 36.6309 30.9938 36.4337 31.0078 36.4291C31.0681 36.4089 31.1191 36.3591 31.1469 36.2928C31.174 36.2255 31.1763 36.1472 31.1523 36.0782C30.775 34.9838 30.0676 34.3804 29.33 34.0497C30.6111 33.7255 31.9534 32.9314 32.2417 31.0245C32.258 30.9195 32.2186 30.8145 32.1428 30.7574C32.0539 30.692 30.124 29.3296 27.4179 32.3584C28.0944 30.4516 28.2514 28.9611 27.8594 27.9331C27.5107 27.0192 26.8605 26.8332 26.8334 26.8249C26.7692 26.8064 26.7058 26.8249 26.654 26.8691C25.2569 28.1007 25.3574 30.5068 25.6473 32.1981C24.8904 31.0006 23.6425 29.5857 22.073 29.8685C21.9616 29.8887 21.8828 30.0048 21.8874 30.1374ZM26.027 36.7534C25.7486 37.1753 25.2956 37.3973 24.6786 37.413C24.602 37.167 24.4814 36.6263 24.6654 36.0367C24.861 35.4112 25.3543 34.9009 26.1143 34.5112C26.1785 34.5997 26.2543 34.6678 26.3417 34.7176C26.402 35.2261 26.4344 36.1371 26.027 36.7534ZM26.9076 34.0248C26.896 34.1096 26.8574 34.1833 26.7978 34.233C26.7391 34.2819 26.6679 34.2994 26.5976 34.2865C26.5272 34.2717 26.4654 34.2257 26.4244 34.1557C26.3826 34.0856 26.3672 34.0009 26.3788 33.9161C26.3911 33.8323 26.429 33.7595 26.4886 33.7098C26.5349 33.6711 26.5883 33.6508 26.6432 33.6508C26.6587 33.6508 26.6733 33.6518 26.6888 33.6554C26.8349 33.6858 26.9324 33.8517 26.9076 34.0248ZM30.6335 35.9943C29.9222 36.1546 27.9367 36.3997 26.9687 34.7084C26.9958 34.6918 27.0251 34.6807 27.0507 34.6595C27.1836 34.5472 27.2687 34.3823 27.3128 34.198C28.1462 34.1851 29.8952 34.362 30.6335 35.9943ZM31.7763 31.1194C31.3665 33.1138 29.4421 33.6112 28.1223 33.7135C28.1254 33.7144 28.1277 33.7162 28.1308 33.7162C27.8099 33.6729 27.5184 33.6637 27.2903 33.6693C27.2586 33.5735 27.2146 33.4878 27.1566 33.4113C29.5318 30.2968 31.2931 30.8643 31.7763 31.1194ZM26.8257 27.3739C26.9741 27.4504 27.2733 27.6595 27.4604 28.1505C27.7419 28.8883 27.7914 30.3631 26.6308 33.146C26.5234 33.1488 26.4197 33.1783 26.3231 33.2391C25.9821 31.8905 25.3999 28.7741 26.8257 27.3739ZM25.9705 33.7586C25.9651 33.7826 25.952 33.8028 25.9489 33.8268C25.9466 33.8434 25.9512 33.8599 25.9497 33.8765C23.0186 33.4537 22.4549 31.1305 22.3498 30.3595C24.2085 30.2342 25.6095 32.9775 25.9705 33.7586Z" fill="#C18F2C"/>
<path d="M7.33395 35.0953C7.36023 35.0317 7.3641 34.958 7.344 34.8907C7.13524 34.2017 6.73474 33.7844 6.28707 33.5292C7.12519 33.2345 7.903 32.6044 8.08856 31.37C8.10403 31.2696 8.06769 31.1664 7.99656 31.1084C7.94166 31.0632 6.78731 30.1734 5.12576 31.9853C5.49147 30.7565 5.54791 29.8003 5.28735 29.138C5.0987 28.658 4.77783 28.4544 4.61779 28.4093C4.55052 28.389 4.48093 28.4102 4.42913 28.4618C3.59333 29.278 3.54849 30.7629 3.67374 31.9264C3.17659 31.16 2.43434 30.3991 1.51659 30.6036C1.41066 30.6266 1.33489 30.7381 1.33798 30.867C1.33876 30.8928 1.41762 33.2096 3.49514 33.7835C3.16499 34.0635 2.92917 34.3952 2.80701 34.7839C2.57042 35.5356 2.82557 36.1961 2.83639 36.2237C2.87428 36.3186 2.98175 36.3711 3.04283 36.3739C3.57091 36.3739 3.97373 36.1712 4.24202 35.7732C4.46315 35.4444 4.54665 35.0391 4.57526 34.666C5.02757 35.2205 5.64765 35.4066 6.21594 35.4066C6.59015 35.4057 6.94195 35.3283 7.20405 35.2288C7.26049 35.2076 7.30843 35.1588 7.33395 35.0953ZM7.62157 31.4658C7.32389 32.7895 6.13553 33.1313 5.32524 33.2114C5.16829 33.1921 5.02061 33.1902 4.88066 33.1958C4.86752 33.1617 4.86056 33.1239 4.84278 33.0926C6.2515 31.0964 7.27364 31.3055 7.62157 31.4658ZM4.60928 28.9703C4.69124 29.0293 4.81108 29.149 4.8969 29.3793C5.08169 29.8721 5.11958 30.8735 4.358 32.8374C4.32707 32.842 4.29924 32.8494 4.26908 32.8605C4.07038 31.9006 3.79126 29.9302 4.60928 28.9703ZM1.79802 31.0927H1.81503C2.87892 31.0927 3.67374 32.8006 3.90105 33.3478C2.24182 33.0779 1.87688 31.6666 1.79802 31.0927ZM3.89796 35.4462C3.73869 35.6839 3.50519 35.8147 3.18741 35.8451C3.14566 35.6572 3.10468 35.3228 3.21602 34.9672C3.3405 34.5729 3.6258 34.2422 4.05646 33.9797C4.08275 34.0101 4.10594 34.0451 4.13687 34.0681C4.16857 34.4661 4.15543 35.0639 3.89796 35.4462ZM4.60851 33.5569V33.5578C4.59304 33.6407 4.54743 33.7116 4.4848 33.7549C4.45542 33.7743 4.4098 33.7964 4.35413 33.7872C4.30001 33.778 4.26522 33.7439 4.24434 33.7162C4.1995 33.6564 4.18172 33.5744 4.19718 33.4887C4.21264 33.4067 4.25826 33.3349 4.32089 33.2925C4.34486 33.2759 4.38351 33.2584 4.42527 33.2584C4.43377 33.2584 4.44228 33.2584 4.45155 33.2603C4.50568 33.2695 4.54047 33.3036 4.56134 33.3312C4.60619 33.3911 4.62397 33.474 4.60851 33.5569ZM4.71598 34.0258C4.80103 33.9484 4.85902 33.8388 4.89613 33.7172C5.40874 33.7052 6.38835 33.8176 6.83216 34.8032C6.34738 34.9202 5.27189 35.0308 4.71598 34.0258Z" fill="#C18F2C"/>
<path d="M49.683 42.2123C49.4935 42.1184 45.0122 39.9536 40.4172 41.6163C39.8559 41.819 39.3217 42.0704 38.8145 42.3533C38.9521 42.1331 39.0858 41.9065 39.2064 41.6651C40.8348 38.4051 40.0886 34.5766 40.0562 34.4154L39.9827 34.0515L39.6889 34.1695C39.5521 34.2247 36.3913 35.5218 34.7305 38.6022C34.6161 38.2512 34.4893 37.9214 34.3571 37.6175V21.1743C34.3571 18.7553 32.9035 16.7876 31.1183 16.7876H30.9412V10.3421L30.7224 10.0805H30.6946C30.342 9.70835 29.6377 9.45319 28.7995 9.30764L28.89 1.96212C28.89 0.87973 28.0209 0 26.9524 0C25.8831 0 25.0141 0.880652 25.0141 1.96212L25.1007 9.30856C24.2649 9.45411 23.562 9.70928 23.2095 10.0796H23.1816L22.9628 10.3412V16.7867H22.7858C20.9998 16.7867 19.5477 18.6862 19.5477 21.0205V47.207C19.5477 47.2162 19.5485 47.2245 19.5485 47.2328C19.5524 47.2254 19.5578 47.2199 19.5616 47.2125C19.7147 48.7721 23.9966 49.3432 26.8983 49.3432C28.7207 49.3432 31.0765 49.1129 32.6252 48.5593L32.67 48.6136L32.6639 48.6238L32.6886 48.6357L32.7211 48.6753L32.7334 48.6578L32.9778 48.7776C33.1146 48.8448 35.5029 50 38.5562 50C39.7183 50 40.977 49.8323 42.2443 49.3745C46.8385 47.7136 49.6868 42.9032 49.8059 42.6987L50 42.3661L49.683 42.2123ZM40.5757 42.2399C44.0094 40.9982 47.467 42.0281 48.8464 42.5532L43.5934 44.4149C43.5927 44.4149 43.5919 44.4158 43.5903 44.4158L33.8244 47.8767C34.8311 46.4442 37.2519 43.4421 40.5757 42.2399ZM34.9702 39.4801C35.0128 39.3824 35.0468 39.2829 35.0947 39.1862C36.3295 36.7128 38.7139 35.3781 39.5606 34.9663C39.699 35.9925 39.9348 38.8693 38.7163 41.3077C38.2817 42.1773 37.7034 42.9004 37.1011 43.4974C37.1026 43.4974 37.1034 43.4983 37.1042 43.4983C35.6777 44.612 34.5713 45.886 33.8453 46.8449C34.48 45.5977 35.2068 43.7277 35.2223 41.6734C35.2285 40.8923 35.1272 40.1581 34.9702 39.4801ZM27.0761 24.3589C29.957 24.3589 32.4381 26.4103 33.5893 29.359V36.1472C33.2731 35.6341 33.0288 35.3302 32.9994 35.2942L32.7914 35.0418L32.5966 35.308C32.5154 35.4186 30.8453 37.7317 30.3977 40.6914C29.4018 41.3243 28.2792 41.7029 27.0761 41.7029C23.9672 41.7029 21.3198 39.3152 20.3124 35.987V30.0748C21.3198 26.7466 23.9672 24.3589 27.0761 24.3589ZM26.1375 23.913V19.986C26.4259 20.0026 26.7035 20.0109 26.9509 20.0109C27.2887 20.0109 27.6807 19.9961 28.0836 19.963V23.9231C27.7534 23.8706 27.4186 23.8365 27.0761 23.8365C26.7576 23.8365 26.446 23.8679 26.1375 23.913ZM30.9389 18.7433V17.7328H31.1167C32.4798 17.7328 33.5886 19.2758 33.5886 21.1725V28.2803C32.4883 26.1027 30.6691 24.521 28.5204 24.0208V19.9188C29.7467 19.7732 30.9389 19.4324 30.9389 18.7433ZM30.5028 18.736C30.4317 18.9985 29.1498 19.4867 26.9509 19.4867C24.752 19.4867 23.4693 18.9976 23.3989 18.7424V11.3435C24.1064 11.8566 25.5646 12.0979 26.9509 12.0979C28.3372 12.0979 29.7946 11.8566 30.5021 11.3435L30.5028 18.736ZM25.4494 1.9612H25.4501C25.4501 1.16714 26.1236 0.52139 26.9501 0.52139C27.7766 0.52139 28.4493 1.16714 28.4493 1.9612V10.1293C27.4403 10.4435 26.4599 10.4435 25.4494 10.1293V1.9612ZM25.1053 9.841L25.1138 10.5752C25.7099 10.7797 26.3663 10.8884 26.9501 10.8884C27.5338 10.8884 28.1864 10.7585 28.7825 10.554L28.791 9.841C29.899 10.0483 30.5013 10.4066 30.5013 10.6277C30.5013 10.9501 29.248 11.5765 26.9501 11.5765C24.6522 11.5765 23.3981 10.9492 23.3981 10.6277C23.3989 10.4057 24.0004 10.0483 25.1053 9.841ZM20.3116 21.0196C20.3124 19.1892 21.4204 17.6996 22.7835 17.6996H22.9605V18.7433C22.9605 19.4932 24.3692 19.8303 25.6991 19.9528V23.9904C23.3564 24.5062 21.3863 26.309 20.3116 28.7676V21.0196ZM26.896 48.6928C22.4324 48.691 20.0975 47.674 20.0975 47.1287C20.0975 46.5833 22.4324 45.5673 26.896 45.5673C27.0483 45.5673 27.172 45.4208 27.172 45.2412C27.172 45.0615 27.0483 44.9151 26.896 44.9151C24.6971 44.9151 21.701 45.243 20.3124 46.0804V37.2858C21.5905 40.217 24.1388 42.2252 27.0761 42.2252C28.2444 42.2252 29.3377 41.8807 30.325 41.3086C30.3034 41.5509 30.2894 41.7969 30.2871 42.0456C30.2655 44.893 31.6147 47.1581 32.2216 48.0342C31.0897 48.3944 29.3121 48.6928 26.896 48.6928ZM32.6963 47.6897C32.169 46.9389 30.8144 44.7437 30.8353 42.0502C30.8562 39.3244 32.2819 36.8538 32.8138 36.0284C33.3412 36.7792 34.6958 38.9743 34.6749 41.6679C34.6548 44.3937 33.2283 46.8643 32.6963 47.6897ZM33.6512 48.375L36.8931 47.2263C36.9078 47.2503 36.9155 47.2797 36.9387 47.2954L39.8845 49.2612C37.1142 49.5855 34.6432 48.7693 33.6512 48.375ZM42.0827 48.7518C41.5445 48.9462 41.0064 49.0797 40.4752 49.1728L37.3276 47.0725L40.3291 46.0085C40.3361 46.015 40.3368 46.026 40.3438 46.0315L43.4744 48.1208C43.0306 48.3621 42.5667 48.5768 42.0827 48.7518ZM43.8617 47.8969L40.7891 45.8455L43.6174 44.8432L45.923 46.3816C45.306 46.926 44.6163 47.4483 43.8617 47.8969ZM46.2315 46.1062L44.089 44.6765L48.9438 42.9557C48.4482 43.677 47.5158 44.9141 46.2315 46.1062Z" fill="#C18F2C"/>
</svg>
