<svg width="30" height="30" viewBox="0 0 30 30" fill="none" xmlns="http://www.w3.org/2000/svg">
<path d="M9.58867 11.7003H9.05333V8.57972L9.02503 8.546C9.02178 8.55595 9.01482 8.56259 9.01065 8.57198C8.92436 8.3813 8.70586 8.22985 8.4085 8.116V5.81783L8.36767 5.76919C8.15382 5.42043 7.10539 5.39003 6.75839 5.39003C6.41139 5.39003 5.36297 5.42098 5.14911 5.76919L5.10828 5.81838V6.10081H3.99862L3.86734 6.25778V7.34662L3.99862 7.50359H5.10828V8.11544C4.8921 8.1978 4.7186 8.3006 4.60588 8.42386H4.59474L4.46346 8.58082V11.7014H4.0478C3.26658 11.7014 2.63103 12.4586 2.63103 13.3894V15.3919C1.69812 15.8556 0.820416 16.9693 0.343522 18.4544C-0.0995063 19.8351 -0.114815 21.3003 0.302235 22.3748C0.566196 23.0557 0.983246 23.5327 1.50653 23.7527C1.71714 23.8417 1.93611 23.8837 2.15785 23.8837C2.31419 23.8837 2.47238 23.8622 2.63103 23.8213V26.5721C2.63103 28.2673 3.92533 29.6463 5.51652 29.6463H8.11995C9.71114 29.6463 11.0054 28.2667 11.0054 26.5721V15.5953V15.2946V13.3877C11.0054 12.4575 10.3699 11.7003 9.58867 11.7003ZM5.10782 7.18965H4.12991V6.4142H5.10782V7.18965ZM6.75839 5.70342C7.47837 5.70342 7.93717 5.81783 8.09815 5.90184C7.93717 5.9864 7.47837 6.10026 6.75839 6.10026C6.03841 6.10026 5.57961 5.98585 5.41864 5.90184C5.57961 5.81727 6.03841 5.70342 6.75839 5.70342ZM5.37039 7.34662V6.25778V6.21136C5.76146 6.39486 6.4819 6.4142 6.75793 6.4142C7.03395 6.4142 7.75439 6.3943 8.14546 6.21136V8.23649C8.03134 8.30889 7.55863 8.4233 6.75793 8.4233C5.95723 8.4233 5.48497 8.30889 5.37039 8.23649V7.34662ZM5.16302 8.42496C5.38106 8.69192 6.22444 8.73669 6.75839 8.73669C7.29281 8.73669 8.13897 8.69137 8.35515 8.4233C8.63535 8.53827 8.79076 8.66649 8.79076 8.75714C8.79076 8.95943 8.0731 9.35241 6.75839 9.35241C5.44369 9.35241 4.72603 8.95943 4.72603 8.75714C4.72603 8.66705 4.8819 8.53937 5.16302 8.42496ZM4.72603 9.20152C5.13102 9.50717 5.94702 9.66635 6.75839 9.66635C7.56976 9.66635 8.38577 9.50772 8.79076 9.20152V11.2869C8.61308 11.3919 7.97985 11.5157 7.04137 11.5351C7.04091 11.5306 7.04369 11.5262 7.04277 11.5218C7.12627 11.4063 7.20142 11.1775 7.26312 10.9917C7.284 10.9287 7.30255 10.8718 7.31786 10.8304C7.42131 10.5557 7.41853 10.2926 7.3109 10.108C7.24456 9.9941 7.14436 9.93441 7.05019 9.95818C6.99591 9.972 6.95601 10.0123 6.93096 10.0405C6.82102 10.1638 6.78159 10.4551 6.77231 10.7386C6.66886 10.4147 6.55798 10.1478 6.37706 10.1765C6.19475 10.2108 6.1196 10.3241 6.08851 10.4125C6.01429 10.6264 6.12423 10.8818 6.15578 10.9337C6.26804 11.1183 6.56865 11.3814 6.78205 11.5389C5.58796 11.5373 4.82437 11.3659 4.75664 11.267C4.75664 11.236 4.74412 11.2112 4.72603 11.1924V9.20152ZM6.98431 11.749C6.98756 11.7473 6.98802 11.7434 6.99081 11.7412C7.44358 11.7335 8.37046 11.6926 8.79029 11.4991V13.7973C8.77777 13.9261 8.1334 14.2654 6.75793 14.2654C6.53154 14.2654 6.33206 14.2538 6.14465 14.2378C6.00408 13.2617 5.72713 12.3486 6.98431 11.749ZM6.89014 11.3803L6.92911 11.3648C6.92215 11.3764 6.91612 11.3864 6.90916 11.3941C6.90267 11.3897 6.89664 11.3853 6.89014 11.3803ZM7.0488 10.1887C7.06503 10.1699 7.07802 10.1594 7.0873 10.1572C7.08869 10.1566 7.09055 10.1566 7.0924 10.1566C7.11189 10.1566 7.14529 10.1804 7.1708 10.224C7.27379 10.4009 7.1991 10.6491 7.16199 10.7469C7.14575 10.7906 7.1258 10.8508 7.10354 10.9177C7.06503 11.0349 7.01215 11.1962 6.96065 11.3046C6.92029 10.9216 6.93792 10.3125 7.0488 10.1887ZM6.75514 11.2764C6.57097 11.1272 6.36964 10.9365 6.29495 10.8143C6.27408 10.7801 6.20727 10.6054 6.24717 10.491C6.25506 10.4689 6.27825 10.4015 6.4049 10.3777C6.40582 10.3777 6.40675 10.3777 6.40814 10.3777C6.4601 10.3777 6.55427 10.6065 6.68834 11.0575C6.712 11.1382 6.73427 11.2128 6.75514 11.2764ZM4.72603 11.4577C5.09298 11.6843 6.09826 11.7318 6.58767 11.7407C6.17712 11.9888 5.84914 12.3288 5.78558 12.9456C5.74198 13.3712 5.8561 13.7791 5.92568 14.1892C5.92707 14.198 5.92847 14.2069 5.92986 14.2163C5.12498 14.1184 4.73577 13.8962 4.72603 13.7968V11.4577ZM4.0478 12.1701H4.46346V13.7968C4.46346 14.2422 5.24374 14.4506 5.97718 14.533C6.04491 15.0591 6.03285 15.5643 5.67193 16.0015C5.55131 16.148 5.40936 16.2491 5.25812 16.3188C4.99741 15.823 4.64623 15.4626 4.21759 15.2824C3.83719 15.1227 3.43081 15.1177 3.02582 15.2366V13.3883H3.02535C3.02535 12.7168 3.48415 12.1701 4.0478 12.1701ZM1.59467 23.4565C1.13958 23.2647 0.774953 22.8452 0.541146 22.2422C0.153322 21.2429 0.17095 19.8683 0.589392 18.565C1.18458 16.7106 2.42692 15.4632 3.55745 15.4632C3.75276 15.4632 3.94481 15.5002 4.12898 15.5781C4.47877 15.7252 4.77334 16.0098 4.99787 16.4061C4.82159 16.4409 4.63881 16.4348 4.46021 16.3978C4.45882 16.3409 4.44861 16.2845 4.42681 16.2309C4.34145 16.0214 4.12481 15.928 3.93971 16.0242C3.84925 16.0717 3.78059 16.1579 3.74719 16.2663C3.71518 16.3713 3.71935 16.4851 3.76064 16.5868C3.82327 16.7405 3.95734 16.8311 4.09604 16.8311C4.14661 16.8311 4.19857 16.819 4.24728 16.7935C4.32336 16.7537 4.37763 16.6836 4.41521 16.6001C4.64345 16.6515 4.87123 16.6476 5.08694 16.5935C5.11849 16.6603 5.15467 16.7211 5.18251 16.7935C5.57033 17.7928 5.55224 19.1674 5.13426 20.4702C4.43655 22.644 2.84768 23.9843 1.59467 23.4565ZM4.15728 16.5194C4.1995 16.536 4.24217 16.5454 4.28485 16.5586C4.26166 16.5962 4.23336 16.6294 4.19532 16.6493C4.07517 16.7117 3.93461 16.6532 3.87986 16.5177C3.85389 16.4553 3.8511 16.3851 3.87105 16.3199C3.89193 16.2519 3.93553 16.1977 3.99306 16.1673C4.02553 16.1502 4.0594 16.1425 4.0928 16.1425C4.18233 16.1425 4.26862 16.2005 4.30851 16.2989C4.31686 16.3188 4.31872 16.3403 4.32243 16.3619C4.28253 16.3497 4.24217 16.3387 4.20274 16.3232C4.0979 16.2817 4.0529 16.4785 4.15728 16.5194ZM3.86734 23.1033V28.5077C3.35473 28.0301 3.02535 27.3431 3.02535 26.571V23.6715C3.35426 23.5195 3.67714 23.2912 3.97914 22.9889C3.9411 23.0259 3.90724 23.069 3.86734 23.1033ZM9.5678 28.6818C9.15863 28.9896 8.66086 29.1754 8.11995 29.1754H5.51652C5.00344 29.1754 4.52655 29.0118 4.12991 28.7326V22.8352C4.09512 22.8805 4.0529 22.9137 4.0144 22.9529C4.57758 22.3759 5.06607 21.5596 5.38013 20.5813C5.7429 19.451 5.81388 18.2665 5.60049 17.2838H9.5678V28.6818ZM10.6111 26.571C10.6111 27.3133 10.3087 27.9798 9.83037 28.4546V17.2545C10.1352 17.1915 10.4061 17.0141 10.6111 16.7582V26.571ZM10.6111 15.32V15.5953C10.6111 16.2668 10.1523 16.8134 9.58867 16.8134H5.47106C5.45389 16.7631 5.44044 16.7101 5.42188 16.6614C5.39915 16.6029 5.369 16.5542 5.34395 16.499C5.60049 16.3718 5.82734 16.1568 5.99202 15.8335C6.20542 15.4134 6.22258 14.9807 6.18269 14.554C6.39191 14.5711 6.59092 14.5788 6.75839 14.5788C7.55213 14.5788 9.05333 14.4158 9.05333 13.7973V12.1707H9.58867C10.1523 12.1707 10.6111 12.7168 10.6111 13.3889V15.32Z" fill="#1F4B3E"/>
<path d="M13.1324 18.0825C13.1334 18.1046 13.2331 20.1336 15.2743 20.5901C14.912 20.8366 14.6684 21.1445 14.5534 21.512C14.3632 22.1211 14.5956 22.6545 14.6053 22.6771C14.6276 22.7274 14.6712 22.7589 14.7185 22.7601C14.7343 22.7606 14.7491 22.7606 14.7649 22.7606C15.2418 22.7606 15.5981 22.5871 15.824 22.2433C16.0314 21.9282 16.0875 21.5308 16.0894 21.1964C16.5407 21.8177 17.2055 21.9785 17.7423 21.9785C18.2233 21.9785 18.5963 21.8602 18.6047 21.8575C18.6408 21.8453 18.6715 21.8155 18.6882 21.7757C18.7044 21.7353 18.7058 21.6883 18.6914 21.6469C18.465 20.9903 18.0405 20.6283 17.598 20.4298C18.3667 20.2353 19.172 19.7588 19.345 18.6147C19.3548 18.5517 19.3311 18.4887 19.2857 18.4544C19.2323 18.4152 18.0744 17.5977 16.4507 19.4151C16.8567 18.2709 16.9508 17.3767 16.7156 16.7598C16.5064 16.2115 16.1163 16.0999 16.1 16.0949C16.0615 16.0839 16.0235 16.0949 15.9924 16.1215C15.1541 16.8604 15.2144 18.3041 15.3884 19.3189C14.9342 18.6004 14.1855 17.7514 13.2438 17.9211C13.177 17.9332 13.1297 18.0029 13.1324 18.0825ZM15.6162 22.052C15.4492 22.3052 15.1773 22.4384 14.8071 22.4478C14.7612 22.3002 14.6888 21.9758 14.7992 21.622C14.9166 21.2467 15.2126 20.9405 15.6686 20.7067C15.7071 20.7598 15.7526 20.8007 15.805 20.8305C15.8412 21.1356 15.8607 21.6823 15.6162 22.052ZM16.1446 20.4149C16.1376 20.4658 16.1144 20.51 16.0787 20.5398C16.0434 20.5691 16.0008 20.5796 15.9585 20.5719C15.9163 20.563 15.8792 20.5354 15.8546 20.4934C15.8296 20.4514 15.8203 20.4005 15.8273 20.3497C15.8347 20.2994 15.8574 20.2557 15.8931 20.2259C15.921 20.2027 15.953 20.1905 15.9859 20.1905C15.9952 20.1905 16.004 20.1911 16.0133 20.1933C16.101 20.2115 16.1594 20.311 16.1446 20.4149ZM18.3801 21.5966C17.9533 21.6928 16.762 21.8398 16.1812 20.825C16.1975 20.8151 16.2151 20.8084 16.2304 20.7957C16.3102 20.7283 16.3612 20.6294 16.3877 20.5188C16.8877 20.5111 17.9371 20.6172 18.3801 21.5966ZM19.0658 18.6717C18.8199 19.8683 17.6653 20.1667 16.8734 20.2281C16.8752 20.2286 16.8766 20.2297 16.8785 20.2297C16.6859 20.2038 16.5111 20.1982 16.3742 20.2016C16.3552 20.1441 16.3287 20.0927 16.2939 20.0468C17.7191 18.1781 18.7758 18.5186 19.0658 18.6717ZM16.0954 16.4243C16.1845 16.4702 16.364 16.5957 16.4763 16.8903C16.6451 17.333 16.6748 18.2179 15.9785 19.8876C15.914 19.8893 15.8518 19.907 15.7939 19.9434C15.5893 19.1343 15.24 17.2645 16.0954 16.4243ZM15.5823 20.2552C15.5791 20.2695 15.5712 20.2817 15.5693 20.2961C15.5679 20.306 15.5707 20.316 15.5698 20.3259C13.8111 20.0722 13.4729 18.6783 13.4099 18.2157C14.5251 18.1405 15.3657 19.7865 15.5823 20.2552Z" fill="#1F4B3E"/>
<path d="M4.40037 21.0572C4.41614 21.019 4.41846 20.9748 4.4064 20.9345C4.28114 20.521 4.04084 20.2706 3.77224 20.1175C4.27511 19.9407 4.7418 19.5626 4.85314 18.822C4.86242 18.7617 4.84061 18.6998 4.79793 18.665C4.765 18.6379 4.07239 18.104 3.07546 19.1912C3.29488 18.4539 3.32875 17.8802 3.17241 17.4828C3.05922 17.1948 2.8667 17.0727 2.77067 17.0456C2.73031 17.0334 2.68856 17.0461 2.65748 17.0771C2.156 17.5668 2.12909 18.4578 2.20424 19.1558C1.90595 18.696 1.46061 18.2394 0.909951 18.3621C0.846396 18.376 0.800934 18.4428 0.802789 18.5202C0.803253 18.5357 0.850571 19.9258 2.09708 20.2701C1.899 20.4381 1.7575 20.6371 1.68421 20.8703C1.54225 21.3213 1.69534 21.7176 1.70184 21.7342C1.72457 21.7912 1.78905 21.8227 1.8257 21.8243C2.14254 21.8243 2.38424 21.7027 2.54521 21.4639C2.67789 21.2666 2.72799 21.0234 2.74516 20.7996C3.01654 21.1323 3.38859 21.244 3.72956 21.244C3.95409 21.2434 4.16517 21.197 4.32243 21.1373C4.3563 21.1246 4.38506 21.0953 4.40037 21.0572ZM4.57294 18.8795C4.39434 19.6737 3.68132 19.8788 3.19514 19.9269C3.10097 19.9153 3.01237 19.9141 2.9284 19.9175C2.92051 19.897 2.91634 19.8744 2.90567 19.8556C3.7509 18.6578 4.36418 18.7833 4.57294 18.8795ZM2.76557 17.3822C2.81474 17.4176 2.88665 17.4894 2.93814 17.6276C3.04901 17.9233 3.07175 18.5241 2.6148 19.7025C2.59624 19.7052 2.57954 19.7096 2.56145 19.7163C2.44223 19.1404 2.27476 17.9581 2.76557 17.3822ZM1.07881 18.6556H1.08902C1.72735 18.6556 2.20424 19.6804 2.34063 20.0087C1.34509 19.8467 1.12613 19 1.07881 18.6556ZM2.33878 21.2677C2.24321 21.4103 2.10311 21.4888 1.91245 21.5071C1.8874 21.3943 1.86281 21.1937 1.92961 20.9803C2.0043 20.7438 2.17548 20.5453 2.43388 20.3878C2.44965 20.4061 2.46357 20.4271 2.48212 20.4409C2.50114 20.6797 2.49326 21.0384 2.33878 21.2677ZM2.7651 20.1341V20.1347C2.75583 20.1844 2.72846 20.227 2.69088 20.253C2.67325 20.2646 2.64588 20.2778 2.61248 20.2723C2.58001 20.2668 2.55913 20.2463 2.54661 20.2297C2.5197 20.1938 2.50903 20.1446 2.51831 20.0932C2.52759 20.044 2.55496 20.0009 2.59253 19.9755C2.60691 19.9656 2.63011 19.955 2.65516 19.955C2.66026 19.955 2.66537 19.955 2.67093 19.9562C2.70341 19.9617 2.72428 19.9821 2.73681 19.9987C2.76371 20.0346 2.77438 20.0844 2.7651 20.1341ZM2.82959 20.4155C2.88062 20.369 2.91541 20.3033 2.93768 20.2303C3.24525 20.2231 3.83301 20.2905 4.09929 20.8819C3.80843 20.9521 3.16313 21.0185 2.82959 20.4155Z" fill="#1F4B3E"/>
<path d="M29.8099 25.3274C29.6962 25.271 27.0075 23.9721 24.2505 24.9698C23.9137 25.0914 23.5931 25.2423 23.2888 25.412C23.3714 25.2799 23.4516 25.1439 23.524 24.9991C24.501 23.043 24.0533 20.746 24.0338 20.6492L23.9898 20.4309L23.8135 20.5017C23.7314 20.5348 21.8349 21.3131 20.8384 23.1613C20.7698 22.9507 20.6937 22.7529 20.6144 22.5705V12.7046C20.6144 11.2532 19.7422 10.0726 18.6711 10.0726H18.5649V6.20528L18.4336 6.04831H18.4169C18.2053 5.82501 17.7827 5.67191 17.2798 5.58458L17.3341 1.17727C17.3341 0.527838 16.8127 0 16.1716 0C15.53 0 15.0086 0.528391 15.0086 1.17727L15.0605 5.58514C14.559 5.67246 14.1374 5.82557 13.9258 6.04775H13.9091L13.7778 6.20472V10.072H13.6716C12.6 10.072 11.7288 11.2117 11.7288 12.6123V28.3242C11.7288 28.3297 11.7292 28.3347 11.7292 28.3397C11.7315 28.3352 11.7348 28.3319 11.7371 28.3275C11.829 29.2632 14.3981 29.6059 16.1391 29.6059C17.2325 29.6059 18.646 29.4677 19.5752 29.1356L19.6021 29.1682L19.5984 29.1743L19.6133 29.1814L19.6328 29.2052L19.6402 29.1947L19.7868 29.2666C19.8689 29.3069 21.3019 30 23.1338 30C23.8311 30 24.5863 29.8994 25.3467 29.6247C28.1032 28.6282 29.8122 25.7419 29.8837 25.6192L30.0001 25.4197L29.8099 25.3274ZM24.3456 25.344C26.4058 24.5989 28.4803 25.2168 29.3079 25.5319L26.1562 26.6489C26.1557 26.6489 26.1553 26.6495 26.1543 26.6495L20.2948 28.726C20.8988 27.8665 22.3512 26.0653 24.3456 25.344ZM20.9823 23.688C21.0078 23.6295 21.0282 23.5698 21.0569 23.5117C21.7978 22.0277 23.2285 21.2268 23.7365 20.9798C23.8195 21.5955 23.961 23.3216 23.2299 24.7846C22.9692 25.3064 22.6222 25.7403 22.2608 26.0984C22.2617 26.0984 22.2622 26.099 22.2626 26.099C21.4067 26.7672 20.7429 27.5316 20.3073 28.107C20.6881 27.3586 21.1242 26.2366 21.1335 25.0041C21.1372 24.5354 21.0764 24.0948 20.9823 23.688ZM16.2458 14.6153C17.9743 14.6153 19.463 15.8462 20.1537 17.6154V21.6883C19.964 21.3805 19.8174 21.1981 19.7998 21.1765L19.675 21.0251L19.5581 21.1848C19.5094 21.2512 18.5073 22.639 18.2387 24.4149C17.6412 24.7946 16.9676 25.0217 16.2458 25.0217C14.3804 25.0217 12.792 23.5891 12.1876 21.5922V18.0449C12.792 16.0479 14.3804 14.6153 16.2458 14.6153ZM15.6826 14.3478V11.9916C15.8557 12.0015 16.0222 12.0065 16.1706 12.0065C16.3734 12.0065 16.6086 11.9977 16.8503 11.9778V14.3539C16.6522 14.3224 16.4513 14.3019 16.2458 14.3019C16.0547 14.3019 15.8677 14.3207 15.6826 14.3478ZM18.5635 11.246V10.6397H18.6702C19.488 10.6397 20.1533 11.5655 20.1533 12.7035V16.9682C19.4931 15.6616 18.4016 14.7126 17.1124 14.4125V11.9513C17.8481 11.8639 18.5635 11.6594 18.5635 11.246ZM18.3018 11.2416C18.2591 11.3991 17.49 11.692 16.1706 11.692C14.8513 11.692 14.0817 11.3985 14.0395 11.2454V6.80607C14.4639 7.11393 15.3389 7.25874 16.1706 7.25874C17.0024 7.25874 17.8769 7.11393 18.3014 6.80607L18.3018 11.2416ZM15.2697 1.17672H15.2702C15.2702 0.700284 15.6743 0.312834 16.1702 0.312834C16.6661 0.312834 17.0697 0.700284 17.0697 1.17672V6.0776C16.4643 6.26607 15.8761 6.26607 15.2697 6.0776V1.17672ZM15.0633 5.9046L15.0684 6.34511C15.4261 6.46781 15.8199 6.53303 16.1702 6.53303C16.5204 6.53303 16.912 6.4551 17.2696 6.3324L17.2747 5.9046C17.9395 6.02896 18.3009 6.24397 18.3009 6.37662C18.3009 6.57007 17.5489 6.94591 16.1702 6.94591C14.7915 6.94591 14.039 6.56951 14.039 6.37662C14.0395 6.24341 14.4004 6.02896 15.0633 5.9046ZM12.1871 12.6117C12.1876 11.5135 12.8523 10.6198 13.6702 10.6198H13.7764V11.246C13.7764 11.6959 14.6217 11.8982 15.4196 11.9717V14.3942C14.014 14.7037 12.8319 15.7854 12.1871 17.2606V12.6117ZM16.1377 29.2157C13.4596 29.2146 12.0586 28.6044 12.0586 28.2772C12.0586 27.95 13.4596 27.3404 16.1377 27.3404C16.2291 27.3404 16.3033 27.2525 16.3033 27.1447C16.3033 27.0369 16.2291 26.949 16.1377 26.949C14.8184 26.949 13.0207 27.1458 12.1876 27.6482V22.3715C12.9544 24.1302 14.4834 25.3351 16.2458 25.3351C16.9468 25.3351 17.6027 25.1284 18.1951 24.7852C18.1821 24.9305 18.1738 25.0781 18.1724 25.2273C18.1594 26.9358 18.9689 28.2949 19.3331 28.8205C18.6539 29.0366 17.5874 29.2157 16.1377 29.2157ZM19.6179 28.6138C19.3015 28.1633 18.4888 26.8462 18.5013 25.2301C18.5138 23.5946 19.3693 22.1123 19.6884 21.617C20.0048 22.0675 20.8176 23.3846 20.805 25.0007C20.793 26.6362 19.9371 28.1186 19.6179 28.6138ZM20.1908 29.025L22.136 28.3358C22.1448 28.3502 22.1494 28.3678 22.1634 28.3772L23.9308 29.5567C22.2687 29.7513 20.786 29.2616 20.1908 29.025ZM25.2497 29.2511C24.9268 29.3677 24.604 29.4478 24.2853 29.5037L22.3967 28.2435L24.1976 27.6051C24.2018 27.609 24.2022 27.6156 24.2064 27.6189L26.0847 28.8725C25.8185 29.0173 25.5401 29.1461 25.2497 29.2511ZM26.3172 28.7382L24.4736 27.5073L26.1706 26.9059L27.5539 27.829C27.1837 28.1556 26.7699 28.469 26.3172 28.7382ZM27.739 27.6637L26.4535 26.8059L29.3664 25.7734C29.069 26.2062 28.5096 26.9485 27.739 27.6637Z" fill="#1F4B3E"/>
</svg>
