<svg width="24" height="24" viewBox="0 0 24 24" fill="none" xmlns="http://www.w3.org/2000/svg">
<path d="M19.7777 8.14645V17.3821C19.7777 19.559 19.7777 20.6474 19.1268 21.3237C18.4759 22 17.4284 22 15.3333 22H14.2222H9.77772H8.66661C6.57148 22 5.52391 22 4.87305 21.3237C4.22217 20.6474 4.22217 19.559 4.22217 17.3821V8.14645" stroke="#C18F2C" stroke-width="3" stroke-linejoin="round"/>
<path d="M2 10.4554L7 5.83753L10.5237 2.58321C11.3656 1.8056 12.6344 1.8056 13.4763 2.58321L17 5.83753L22 10.4554" stroke="#C18F2C" stroke-width="3" stroke-linecap="round" stroke-linejoin="round"/>
<path d="M9.77783 22V17.3822C9.77783 16.1069 10.7727 15.0732 12.0001 15.0732C13.2274 15.0732 14.2223 16.1069 14.2223 17.3822V22" stroke="#C18F2C" stroke-width="3" stroke-linecap="round" stroke-linejoin="round"/>
</svg>
