<svg width="20" height="20" viewBox="0 0 20 20" fill="none" xmlns="http://www.w3.org/2000/svg">
<path d="M17.619 7.66667V5.33333C17.619 3.91885 16.8163 2.56229 15.3875 1.5621C13.9586 0.561903 12.0207 0 10 0C7.9793 0 6.04137 0.561903 4.61252 1.5621C3.18367 2.56229 2.38095 3.91885 2.38095 5.33333V7.66667H0V13C0 16.8598 4.48595 20 10 20C15.514 20 20 16.8598 20 13V7.66667H17.619ZM4.28571 5.33333C4.28571 4.27247 4.88775 3.25505 5.95939 2.50491C7.03103 1.75476 8.48448 1.33333 10 1.33333C11.5155 1.33333 12.969 1.75476 14.0406 2.50491C15.1122 3.25505 15.7143 4.27247 15.7143 5.33333V7.66667H4.28571V5.33333ZM18.0952 13C18.0952 16.1246 14.4637 18.6667 10 18.6667C5.53631 18.6667 1.90476 16.1246 1.90476 13V9H18.0952V13Z" fill="#C18F2C"/>
</svg>
