<svg width="20" height="20" viewBox="0 0 20 20" fill="none" xmlns="http://www.w3.org/2000/svg">
<path d="M20 10.6408L18.37 8.78779L19.3596 6.78451L17.3684 5.80228L17.5241 3.38296L15.0541 3.22392L14.3069 1.01594L12.1706 1.73974L10.6406 0L8.83582 1.58724L6.65424 0.509604L5.61166 2.61963L3.38289 2.47703L3.23591 4.76693L0.88538 5.56275L1.67352 7.8885L0 9.35919L1.46218 11.0218L0.379054 13.2159L2.62396 14.3243L2.47667 16.6182L4.67807 16.7596L5.43219 18.9841L7.76995 18.1926L9.35941 20L11.0698 18.4953L13.0848 19.4904L14.1343 17.3642L16.6186 17.5244L16.771 15.1431L18.8536 14.4376L18.1259 12.2891L20 10.6408ZM16.1696 14.6825L16.0303 16.8554L13.7558 16.71L12.7988 18.6482L10.9706 17.7452L9.41702 19.1117L7.96576 17.4609L5.82616 18.1858L5.13823 16.158L3.1452 16.0304L3.2786 13.9452L1.22194 12.9297L2.21335 10.9231L0.888648 9.41731L2.40425 8.08452L1.68373 5.95693L3.83722 5.2273L3.97032 3.14435L5.99112 3.27377L6.93942 1.352L8.93541 2.33832L10.5841 0.888156L11.9751 2.47029L13.9133 1.8137L14.5947 3.82464L16.856 3.96938L16.7146 6.1796L18.5178 7.07052L17.6202 8.88646L19.1124 10.5838L17.395 12.0939L18.056 14.0431L16.1696 14.6825Z" fill="#C18F2C"/>
<path d="M12.3294 9.27431C11.3917 9.27431 10.6172 10.0701 10.6172 11.4995C10.6274 12.9171 11.3914 13.6259 12.275 13.6259C13.1808 13.6259 13.9657 12.8845 13.9657 11.3894C13.9661 10.0376 13.3227 9.27431 12.3294 9.27431ZM12.2969 13.0481C11.708 13.0481 11.359 12.3612 11.3699 11.4565C11.3699 10.5616 11.697 9.85277 12.2969 9.85277C12.9619 9.85277 13.2127 10.5726 13.2127 11.4349C13.2127 12.3718 12.9297 13.0481 12.2969 13.0481Z" fill="#C18F2C"/>
<path d="M9.35225 8.45655C9.35225 7.10435 8.69792 6.33989 7.70539 6.33989C6.76741 6.33989 5.99316 7.13683 5.99316 8.55451C6.00409 9.98281 6.76741 10.6916 7.65095 10.6916C8.56698 10.692 9.35225 9.95033 9.35225 8.45655ZM6.75638 8.52203C6.75638 7.62713 7.07333 6.91834 7.6725 6.91834C8.33787 6.91834 8.58863 7.63816 8.58863 8.50048C8.58863 9.43776 8.30498 10.1141 7.6725 10.1141C7.07333 10.1137 6.73452 9.42683 6.75638 8.52203Z" fill="#C18F2C"/>
<path d="M11.7515 6.33994L7.58496 13.6698H8.19537L12.3624 6.33994H11.7515Z" fill="#C18F2C"/>
</svg>
