<svg width="24" height="24" viewBox="0 0 24 24" fill="none" xmlns="http://www.w3.org/2000/svg">
<path d="M22 14.3566L4.98073 22L4.18942 19.504C4.18942 19.504 5.86224 18.5303 5.31283 16.8343C4.76343 15.1383 2.77491 15.5086 2.77491 15.5086L2 12.9395L19.0767 5.42861L19.9213 7.6549C19.9213 7.6549 18.1009 8.89375 18.6667 10.6492C19.2325 12.4046 21.2292 11.9932 21.2292 11.9932L22 14.3566Z" stroke="#C18F2C" stroke-width="2"/>
<path d="M5.75146 11.2937L6.68217 13.6434" stroke="#C18F2C" stroke-width="2" stroke-dasharray="112.5 50"/>
<path d="M7.1167 14.7726L7.90391 16.7566" stroke="#C18F2C" stroke-width="2" stroke-dasharray="112.5 50"/>
<path d="M8.19922 17.6938L9.13403 20.0435" stroke="#C18F2C" stroke-width="2" stroke-dasharray="112.5 50"/>
<path d="M2.02051 12.8937L15.1898 2L16.5757 3.856C16.5757 3.856 15.1529 5.63429 16.1656 7.12457" stroke="#C18F2C" stroke-width="2"/>
</svg>
