<svg width="54" height="87" viewBox="0 0 54 87" fill="none" xmlns="http://www.w3.org/2000/svg">
<path d="M23.752 35.1955C28.8005 31.2731 34.5002 25.4074 34.7054 16.6055C32.1563 23.7753 23.4381 33.9858 0 47.3702C0 47.3702 25.7314 17.2789 17.0239 0.410855C17.0239 0.410855 21.829 -1.65698 31.4215 3.48546C31.4151 3.473 31.4103 3.45742 31.4039 3.44273C31.4039 3.44273 47.4032 12.3982 44.7311 22.1801C44.2063 24.1126 44.5734 26.4497 50.1409 28.6871C51.2577 29.1322 53.2431 29.6766 52.7145 32.2135C52.7145 32.2135 52.1747 34.0192 51.0963 34.7095C51.043 34.7438 50.9807 34.7642 50.9322 34.8043C49.5463 35.9068 51.9531 35.5925 52.7108 35.7946C54.0007 36.1404 54.0322 38.275 51.9867 40.1493C51.9867 40.1493 55.2859 42.9061 53.4375 45.3322C53.4375 45.3322 52.9782 45.7697 51.0606 45.5512C51.0606 45.5512 52.536 54.2502 44.5286 54.0384C39.8168 53.9093 29.5492 50.6749 25.7911 55.7484C25.7911 55.7484 13.0554 68.8123 28.4952 87C28.4952 87 10.6848 81.4908 8.83646 64.6183C8.83965 64.6255 3.16235 51.1765 23.752 35.1955Z" fill="#3D5AF1"/>
</svg>
